<svg id="Capa_1" enable-background="new 0 0 512 512" height="512" viewBox="0 0 512 512" width="512" xmlns="http://www.w3.org/2000/svg"><g><path d="m434.207 330.996h-90.322l88.579 78.737c24.771 22.017 57.517 19.786 79.536-4.982z"/><path d="m276.118 390.996-.079.088 46.479 41.323c13.843 12.319 31.362 18.955 49.731 18.955 1.494 0 3.003-.044 4.497-.132 14.907-.873 28.889-6.059 40.56-14.843l-51.057-45.392h-90.131z"/><path d="m151 383.62v22.375c0 19.53 12.578 36.024 30 42.237v33.763h-60v30h120v-30h-30v-33.763c17.422-6.213 30-22.707 30-42.237v-15h-39.756c-17.464.001-34.341-2.587-50.244-7.375z"/><path d="m332.5 360.996-33.75-30h-42.75c-74.559 0-135-60.441-135-135v-30h30v30c0 57.99 47.01 105 105 105h144.457l-159.457-141.739v-63.404c0-47.759-35.063-91.758-82.672-95.565-42.592-3.405-79.217 24.173-92.108 61.696-36.701 4.853-66.22 36.008-66.22 74.012v15h61v75c0 .557.004 1.115.009 1.672.747 74.784 65.444 133.328 140.231 133.328zm-196.5-306.211 21.211 21.211-21.211 21.211-21.211-21.211z"/></g></svg>