# Blender v2.92.0 OBJ File: 'boxy1.blend'
# www.blender.org
mtllib boxy.mtl
o Cube_Cube.001
v -0.244573 0.023743 0.500632
v -0.244573 0.023743 0.240882
v 0.118651 0.023743 0.500632
v 0.118651 0.429772 0.500632
v 0.118651 0.023743 0.240882
v 0.118651 0.429772 0.240882
v -0.101501 0.447621 0.666954
v -0.101501 0.939295 0.666954
v -0.101501 0.447621 0.238635
v -0.101501 0.939295 0.238635
v 0.244573 0.447621 0.666954
v 0.244573 0.939295 0.666954
v 0.244573 0.447621 0.238635
v 0.244573 0.939295 0.238635
v -0.191265 0.958618 0.671034
v -0.191265 1.248671 0.671034
v 0.467351 0.958618 0.671034
v 0.467351 1.248671 0.671034
v -0.244573 1.279838 0.687178
v -0.244573 2.048627 0.687178
v 0.244573 1.279838 0.687178
v 0.244573 2.048627 0.687178
v 0.244573 2.360995 0.035463
v 0.244573 2.071934 0.035463
v 0.244573 2.360995 0.923298
v 0.244573 2.071934 0.923298
v -0.244574 2.360995 0.035463
v -0.244574 2.071934 0.035463
v -0.244574 2.360995 0.923298
v -0.244574 2.071934 0.923298
v 0.071372 2.360995 0.957669
v 0.071372 2.071934 0.957669
v 0.071372 2.360995 1.543089
v 0.071372 2.071934 1.543089
v -0.244573 2.360995 0.957669
v -0.244573 2.071934 0.957669
v -0.244573 2.360995 1.543089
v -0.244573 2.071934 1.543089
v -0.036374 2.339466 1.567134
v -0.036374 2.154232 1.567134
v -0.036374 2.339466 1.898322
v -0.036374 2.154232 1.898322
v -0.244573 2.339466 1.567134
v -0.244573 2.154232 1.567134
v -0.244573 2.339466 1.898322
v -0.244573 2.154232 1.898322
v 0.265448 2.711576 0.311433
v 0.265448 2.386533 0.311433
v -0.433249 2.711576 0.311433
v -0.433249 2.386533 0.311433
v -0.244573 1.940328 0.687178
v 0.244573 1.940328 0.687178
v -0.418319 1.279838 0.687178
v -0.418319 1.940328 0.687178
v 0.497465 1.279838 0.687178
v 0.497465 2.048627 0.687178
v 0.497465 1.940328 0.687178
v 0.506425 2.360995 0.035463
v 0.506425 2.360995 0.923298
v 0.506425 2.071934 0.035463
v 0.506425 2.071934 0.923298
v -0.244573 0.129937 0.500632
v -0.091128 0.429772 0.500632
v -0.244573 0.129937 0.240882
v -0.091128 0.429772 0.240882
v -0.091128 0.129937 0.500632
v -0.091128 0.129937 0.240882
v -0.244573 0.023743 -0.500632
v -0.244573 0.023743 -0.240882
v 0.118651 0.023743 -0.500632
v 0.118651 0.429772 -0.500632
v 0.118651 0.023743 -0.240882
v 0.118651 0.429772 -0.240882
v -0.101501 0.447621 -0.666954
v -0.101501 0.939295 -0.666954
v -0.101501 0.447621 -0.238635
v -0.101501 0.939295 -0.238635
v 0.244573 0.447621 -0.666954
v 0.244573 0.939295 -0.666954
v 0.244573 0.447621 -0.238635
v 0.244573 0.939295 -0.238635
v -0.191265 0.958618 -0.671034
v -0.191265 1.248671 -0.671034
v -0.191265 0.958618 0.000000
v -0.191265 1.248671 0.000000
v 0.467351 0.958618 -0.671034
v 0.467351 1.248671 -0.671034
v 0.467351 0.958618 -0.000000
v 0.467351 1.248671 -0.000000
v -0.244573 1.279838 -0.687178
v -0.244573 2.048627 -0.687178
v -0.244573 1.279838 0.000000
v -0.244573 2.048627 0.000000
v 0.244573 1.279838 -0.687178
v 0.244573 2.048627 -0.687178
v 0.244573 1.279838 -0.000000
v 0.244573 2.048627 -0.000000
v 0.244573 2.360995 -0.035463
v 0.244573 2.071934 -0.035463
v 0.244573 2.360995 -0.923298
v 0.244573 2.071934 -0.923298
v -0.244574 2.360995 -0.035463
v -0.244574 2.071934 -0.035463
v -0.244574 2.360995 -0.923298
v -0.244574 2.071934 -0.923298
v 0.071372 2.360995 -0.957669
v 0.071372 2.071934 -0.957669
v 0.071372 2.360995 -1.543089
v 0.071372 2.071934 -1.543089
v -0.244573 2.360995 -0.957669
v -0.244573 2.071934 -0.957669
v -0.244573 2.360995 -1.543089
v -0.244573 2.071934 -1.543089
v -0.036374 2.339466 -1.567134
v -0.036374 2.154232 -1.567134
v -0.036374 2.339466 -1.898322
v -0.036374 2.154232 -1.898322
v -0.244573 2.339466 -1.567134
v -0.244573 2.154232 -1.567134
v -0.244573 2.339466 -1.898322
v -0.244573 2.154232 -1.898322
v 0.265448 2.711576 0.000000
v 0.265448 2.386533 0.000000
v 0.265448 2.711576 -0.311433
v 0.265448 2.386533 -0.311433
v -0.433249 2.711576 0.000000
v -0.433249 2.386533 0.000000
v -0.433249 2.711576 -0.311433
v -0.433249 2.386533 -0.311433
v -0.244573 1.940328 -0.687178
v -0.244573 1.940328 0.000000
v 0.244573 1.940328 -0.687178
v -0.418319 1.279838 0.000000
v -0.418319 1.279838 -0.687178
v -0.418319 1.940328 0.000000
v -0.418319 1.940328 -0.687178
v 0.497465 1.940328 -0.000000
v 0.497465 1.279838 -0.000000
v 0.497465 1.279838 -0.687178
v 0.497465 2.048627 -0.000000
v 0.497465 2.048627 -0.687178
v 0.497465 1.940328 -0.687178
v 0.506425 2.360995 -0.035463
v 0.506425 2.360995 -0.923298
v 0.506425 2.071934 -0.035463
v 0.506425 2.071934 -0.923298
v -0.244573 0.129937 -0.500632
v -0.091128 0.429772 -0.500632
v -0.244573 0.129937 -0.240882
v -0.091128 0.429772 -0.240882
v -0.091128 0.129937 -0.500632
v -0.091128 0.129937 -0.240882
vt 0.198732 0.845114
vt 0.198732 0.948017
vt 0.271163 0.948017
vt 0.271163 0.845114
vt 0.120996 0.575280
vt 0.060498 0.575280
vt 0.060498 0.761096
vt 0.120996 0.761096
vt 0.731997 0.863999
vt 0.775902 0.886224
vt 0.808017 0.863999
vt 0.481948 0.931051
vt 0.554378 0.931051
vt 0.554378 0.828148
vt 0.481948 0.828148
vt 0.138235 0.431460
vt 0.000000 0.431460
vt 0.000000 0.575280
vt 0.138235 0.575280
vt 0.908004 0.684007
vt 0.930229 0.684007
vt 0.930229 0.629644
vt 0.908004 0.629644
vt 0.214331 0.000000
vt 0.191665 0.000000
vt 0.191665 0.143820
vt 0.214331 0.143820
vt 0.409518 0.817202
vt 0.409518 0.920105
vt 0.481948 0.920105
vt 0.481948 0.817202
vt 0.276077 0.857241
vt 0.276077 0.946884
vt 0.348507 0.946884
vt 0.348507 0.857241
vt 0.729474 0.000000
vt 0.729474 0.140441
vt 0.790179 0.140441
vt 0.790179 0.000000
vt 0.276077 0.428081
vt 0.276077 0.568523
vt 0.413920 0.568523
vt 0.413920 0.428081
vt 0.847298 0.575280
vt 0.847298 0.713123
vt 0.908004 0.713123
vt 0.908004 0.575280
vt 0.138235 0.428081
vt 0.138235 0.568523
vt 0.276077 0.568523
vt 0.276077 0.428082
vt 0.944367 0.418000
vt 0.944367 0.561820
vt 0.967033 0.561820
vt 0.967033 0.418000
vt 0.574820 0.287640
vt 0.574820 0.473456
vt 0.677194 0.473456
vt 0.677194 0.287640
vt 0.052928 0.143820
vt 0.000000 0.143820
vt 0.000000 0.287640
vt 0.052928 0.287640
vt 0.413920 0.340568
vt 0.413920 0.442942
vt 0.436586 0.442942
vt 0.436586 0.340568
vt 0.155302 0.287640
vt 0.155302 0.143820
vt 0.352566 0.143820
vt 0.352566 0.287640
vt 0.454940 0.287640
vt 0.454940 0.143820
vt 0.786801 0.575280
vt 0.786801 0.677655
vt 0.847298 0.677655
vt 0.847298 0.575280
vt 0.790179 0.054803
vt 0.790179 0.157177
vt 0.850677 0.157177
vt 0.850677 0.054803
vt 0.000000 0.575280
vt 0.000000 0.761096
vt 0.060498 0.761096
vt 0.060498 0.575280
vt 0.481948 0.931051
vt 0.481948 0.997175
vt 0.542446 0.997175
vt 0.542446 0.931051
vt 0.574820 0.811352
vt 0.574820 0.933875
vt 0.640945 0.933875
vt 0.640945 0.811352
vt 0.731997 0.473456
vt 0.731997 0.287640
vt 0.916802 0.084978
vt 0.916802 0.151103
vt 0.977299 0.151103
vt 0.977299 0.084978
vt 0.879823 0.157177
vt 0.879823 0.279700
vt 0.940320 0.279700
vt 0.940320 0.157177
vt 0.348507 0.942219
vt 0.348507 0.985794
vt 0.387275 0.985794
vt 0.387275 0.942219
vt 0.882346 0.761096
vt 0.882346 0.883619
vt 0.942844 0.883619
vt 0.942844 0.761096
vt 0.089643 0.761096
vt 0.089643 0.830411
vt 0.133217 0.830411
vt 0.133217 0.761096
vt 0.886066 0.713123
vt 0.886066 0.756697
vt 0.924834 0.756697
vt 0.924834 0.713123
vt 0.072430 0.863999
vt 0.072430 0.933313
vt 0.111198 0.933313
vt 0.111198 0.863999
vt 0.942844 0.761096
vt 0.942844 0.830411
vt 0.981612 0.830411
vt 0.981612 0.761096
vt 0.574820 0.665121
vt 0.574820 0.811352
vt 0.642849 0.811352
vt 0.642849 0.665121
vt 0.000000 0.287640
vt 0.138235 0.287640
vt 0.823164 0.352820
vt 0.823164 0.418000
vt 0.891192 0.418000
vt 0.891192 0.352820
vt 0.574820 0.442942
vt 0.574820 0.340568
vt 0.436586 0.479305
vt 0.574820 0.479305
vt 0.191665 0.287640
vt 0.214331 0.287640
vt 0.768361 0.431460
vt 0.731997 0.431460
vt 0.731997 0.575280
vt 0.768361 0.575280
vt 0.191665 0.287640
vt 0.191665 0.143820
vt 0.786801 0.575280
vt 0.731997 0.575280
vt 0.731997 0.761096
vt 0.786801 0.761096
vt 0.352566 0.287640
vt 0.352566 0.143820
vt 0.891192 0.287640
vt 0.823164 0.287640
vt 0.198732 0.714754
vt 0.138235 0.714754
vt 0.138235 0.769557
vt 0.198732 0.769557
vt 0.574820 0.287640
vt 0.436586 0.287640
vt 0.276077 0.568523
vt 0.276077 0.754339
vt 0.336575 0.754339
vt 0.336575 0.568523
vt 0.850677 0.000000
vt 0.790179 0.000000
vt 0.786801 0.732458
vt 0.847298 0.732458
vt 0.668769 0.000000
vt 0.530534 0.000000
vt 0.530534 0.036363
vt 0.668769 0.036363
vt 0.507868 0.143820
vt 0.507868 0.000000
vt 0.454940 0.000000
vt 0.198732 0.871931
vt 0.122713 0.871931
vt 0.154828 0.894156
vt 0.908004 0.575280
vt 0.908004 0.629644
vt 0.930229 0.629644
vt 0.930229 0.575280
vt 0.154827 0.956909
vt 0.198732 0.956909
vt 0.276077 0.754338
vt 0.276077 0.857241
vt 0.365720 0.857241
vt 0.365720 0.754338
vt 0.642849 0.914255
vt 0.715279 0.914255
vt 0.715279 0.811352
vt 0.642849 0.811352
vt 0.542446 0.779698
vt 0.574561 0.779698
vt 0.574561 0.725334
vt 0.542446 0.725334
vt 0.729474 0.000000
vt 0.668769 0.000000
vt 0.668769 0.140441
vt 0.729474 0.140441
vt 0.994684 0.157177
vt 0.940320 0.157177
vt 0.940320 0.219930
vt 0.994684 0.219930
vt 0.072430 0.863999
vt 0.000000 0.863999
vt 0.000000 0.953642
vt 0.072430 0.953642
vt 0.413920 0.532233
vt 0.413920 0.634607
vt 0.436586 0.634607
vt 0.436586 0.670971
vt 0.574820 0.670971
vt 0.574820 0.634607
vt 0.574820 0.532233
vt 0.574820 0.479305
vt 0.436586 0.479305
vt 0.413920 0.479305
vt 0.191665 0.000000
vt 0.155302 0.000000
vt 0.883869 0.418000
vt 0.823164 0.418000
vt 0.823164 0.555843
vt 0.883869 0.555843
vt 0.276077 0.287640
vt 0.138235 0.287640
vt 0.413920 0.287640
vt 0.276077 0.287640
vt 0.944367 0.705640
vt 0.967033 0.705640
vt 0.677194 0.479305
vt 0.574820 0.479305
vt 0.574820 0.665121
vt 0.677194 0.665121
vt 0.000000 0.000000
vt 0.052928 0.000000
vt 0.507868 0.036363
vt 0.507868 0.138737
vt 0.530534 0.138737
vt 0.352566 0.000000
vt 0.138235 0.871931
vt 0.198732 0.871931
vt 0.916802 0.000000
vt 0.850677 0.000000
vt 0.850677 0.122523
vt 0.916802 0.122523
vt 0.397073 0.568523
vt 0.336575 0.568523
vt 0.336575 0.754339
vt 0.397073 0.754339
vt 0.542446 0.670971
vt 0.481948 0.670971
vt 0.481948 0.773345
vt 0.542446 0.773345
vt 0.635318 0.933875
vt 0.574820 0.933875
vt 0.574820 1.000000
vt 0.635318 1.000000
vt 0.731997 0.665121
vt 0.731997 0.479305
vt 0.951690 0.287640
vt 0.891192 0.287640
vt 0.891192 0.410163
vt 0.951690 0.410163
vt 0.944367 0.418000
vt 0.883869 0.418000
vt 0.883869 0.540523
vt 0.944367 0.540523
vt 0.470016 0.920105
vt 0.409518 0.920105
vt 0.409518 0.986229
vt 0.470016 0.986229
vt 0.981612 0.830411
vt 0.942844 0.830411
vt 0.942844 0.873985
vt 0.981612 0.873985
vt 0.409295 0.754339
vt 0.365720 0.754339
vt 0.365720 0.823653
vt 0.409295 0.823653
vt 0.352566 0.000000
vt 0.990458 0.287640
vt 0.951690 0.287640
vt 0.951690 0.356955
vt 0.990458 0.356955
vt 0.886066 0.713123
vt 0.847298 0.713123
vt 0.847298 0.756697
vt 0.886066 0.756697
vt 0.481948 0.670971
vt 0.413920 0.670971
vt 0.413920 0.817202
vt 0.481948 0.817202
vt 0.731998 0.761096
vt 0.731998 0.863999
vt 0.821641 0.863999
vt 0.821641 0.761096
vt 0.997134 0.883619
vt 0.958366 0.883619
vt 0.958366 0.952934
vt 0.997134 0.952934
vt 0.203415 0.568523
vt 0.138235 0.568523
vt 0.138235 0.714754
vt 0.203415 0.714754
vt 0.268595 0.714754
vt 0.268595 0.568523
vt 0.710877 0.665121
vt 0.642849 0.665121
vt 0.642849 0.811352
vt 0.710877 0.811352
vt 0.668769 0.138737
vt 0.507868 0.287640
vt 0.507868 0.191665
vt 0.530534 0.191665
vt 0.882346 0.761096
vt 0.821641 0.761096
vt 0.821641 0.898939
vt 0.882346 0.898939
vt 0.652728 0.191665
vt 0.580298 0.191665
vt 0.580298 0.281308
vt 0.652728 0.281308
vt 0.507868 0.191665
vt 0.507868 0.281308
vt 0.580298 0.281308
vt 0.580298 0.191665
vt 0.790179 0.260080
vt 0.879823 0.260080
vt 0.879823 0.157177
vt 0.790179 0.157177
vt 0.668769 0.191665
vt 0.481948 0.828148
vt 0.542446 0.828148
vt 0.668769 0.280883
vt 0.729474 0.280883
vt 0.986749 0.706733
vt 0.942844 0.706733
vt 0.942844 0.761096
vt 0.986749 0.761096
vt 0.072430 0.933314
vt 0.072430 0.987677
vt 0.116335 0.987677
vt 0.116335 0.933314
vt 0.348507 0.857241
vt 0.348507 0.942219
vt 0.402871 0.942219
vt 0.402871 0.857241
vt 0.697212 0.990275
vt 0.697212 0.914255
vt 0.642849 0.914255
vt 0.642849 0.990275
vt 0.876004 0.898939
vt 0.821641 0.898939
vt 0.821641 0.974958
vt 0.876004 0.974958
vt 0.000000 0.863999
vt 0.089643 0.863999
vt 0.089643 0.761096
vt 0.000000 0.761096
vt 0.731998 0.287640
vt 0.768361 0.287640
vt 0.768361 0.558434
vt 0.822724 0.558434
vt 0.822724 0.473456
vt 0.768361 0.473456
vt 0.768361 0.287640
vt 0.768361 0.473456
vt 0.823164 0.473456
vt 0.823164 0.287640
vt 0.731997 0.948977
vt 0.775902 0.948977
vt 0.940320 0.219930
vt 0.940320 0.282682
vt 0.994684 0.282682
vt 0.994684 0.219930
vt 0.914461 0.905845
vt 0.914461 0.968598
vt 0.958366 0.968598
vt 0.958366 0.883619
vt 0.122713 0.894156
vt 0.574561 0.725334
vt 0.574561 0.670971
vt 0.542446 0.670971
vt 0.542446 0.725334
vt 0.916802 0.000000
vt 0.916802 0.084978
vt 0.960707 0.084978
vt 0.960706 0.022226
vt 0.808017 0.886224
vt 0.992821 0.022226
vt 0.992821 0.000000
vt 0.882346 0.883619
vt 0.882346 0.905845
vt 0.413920 0.287640
vt 0.729474 0.280883
vt 0.790179 0.280883
vt 0.198732 0.714754
vt 0.198732 0.779934
vt 0.198732 0.845114
vt 0.266761 0.845114
vt 0.266761 0.779934
vt 0.266761 0.714754
vt 0.000000 0.000000
vt 0.000000 0.000000
vt 0.000000 0.000000
vt 0.000000 0.000000
vt 0.000000 0.000000
vt 0.000000 0.000000
vt 0.000000 0.000000
vt 0.000000 0.000000
vt 0.000000 0.000000
vt 0.000000 0.000000
vt 0.000000 0.000000
vt 0.000000 0.000000
vt 0.000000 0.000000
vt 0.000000 0.000000
vt 0.000000 0.000000
vt 0.000000 0.000000
vt 0.000000 0.000000
vt 0.000000 0.000000
vt 0.000000 0.000000
vt 0.000000 0.000000
vt 0.000000 0.000000
vt 0.000000 0.000000
vt 0.000000 0.000000
vt 0.000000 0.000000
vt 0.000000 0.000000
vt 0.000000 0.000000
vt 0.000000 0.000000
vt 0.000000 0.000000
vt 0.000000 0.000000
vt 0.000000 0.000000
vn 0.0000 0.0000 -1.0000
vn 1.0000 0.0000 0.0000
vn 0.0000 0.0000 1.0000
vn -1.0000 0.0000 0.0000
vn 0.0000 1.0000 0.0000
vn 0.0000 -1.0000 0.0000
usemtl Material.001
s off
f 74/1/1 75/2/1 79/3/1 78/4/1
f 146/5/2 144/6/2 143/7/2 145/8/2
f 3/9/3 66/10/3 1/11/3
f 10/12/1 14/13/1 13/14/1 9/15/1
f 133/16/4 135/17/4 136/18/4 134/19/4
f 69/20/4 149/21/4 147/22/4 68/23/4
f 142/24/2 141/25/2 140/26/2 137/27/2
f 80/28/3 81/29/3 77/30/3 76/31/3
f 10/32/5 8/33/5 12/34/5 14/35/5
f 16/36/4 85/37/4 84/38/4 15/39/4
f 88/40/6 17/41/6 15/42/6 84/43/6
f 18/44/3 16/45/3 15/46/3 17/47/3
f 85/48/5 16/49/5 18/50/5 89/51/5
f 20/52/4 93/53/4 131/54/4 51/55/4
f 27/56/5 29/57/5 25/58/5 23/59/5
f 96/60/6 138/61/6 55/62/6 21/63/6
f 22/64/3 20/65/3 51/66/3 52/67/3
f 96/60/6 21/63/6 19/68/6 92/69/6
f 93/70/5 20/71/5 22/72/5 97/73/5
f 27/74/1 23/75/1 24/76/1 28/77/1
f 25/78/3 29/79/3 30/80/3 26/81/3
f 29/82/4 27/83/4 28/84/4 30/85/4
f 35/86/1 31/87/1 32/88/1 36/89/1
f 35/90/5 37/91/5 33/92/5 31/93/5
f 25/58/5 59/94/5 58/95/5 23/59/5
f 33/96/3 37/97/3 38/98/3 34/99/3
f 37/100/4 35/101/4 36/102/4 38/103/4
f 43/104/1 39/105/1 40/106/1 44/107/1
f 31/108/2 33/109/2 34/110/2 32/111/2
f 43/112/5 45/113/5 41/114/5 39/115/5
f 41/116/3 45/117/3 46/118/3 42/119/3
f 45/120/4 43/121/4 44/122/4 46/123/4
f 39/124/2 41/125/2 42/126/2 40/127/2
f 47/128/3 49/129/3 50/130/3 48/131/3
f 54/132/4 135/17/4 133/16/4 53/133/4
f 122/134/2 47/135/2 48/136/2 123/137/2
f 52/67/3 51/66/3 19/138/3 21/139/3
f 51/66/3 54/140/3 53/141/3 19/138/3
f 140/26/2 56/142/2 57/143/2 137/27/2
f 131/144/5 135/145/5 54/146/5 51/147/5
f 19/68/6 53/148/6 133/149/6 92/69/6
f 24/150/6 60/151/6 61/152/6 26/153/6
f 137/27/2 57/143/2 55/154/2 138/155/2
f 125/156/2 124/157/2 122/134/2 123/137/2
f 145/158/3 143/159/3 98/160/3 99/161/3
f 21/139/3 55/162/3 57/163/3 52/67/3
f 58/164/2 59/165/2 61/166/2 60/167/2
f 26/81/3 61/168/3 59/169/3 25/78/3
f 23/75/1 58/170/1 60/171/1 24/76/1
f 134/172/1 136/173/1 130/174/1 90/175/1
f 140/176/5 141/177/5 95/178/5 97/73/5
f 5/179/1 2/180/1 67/181/1
f 62/182/4 64/183/4 2/184/4 1/185/4
f 67/181/1 65/186/1 6/187/1 5/179/1
f 76/188/4 77/189/4 75/190/4 74/191/4
f 12/192/3 8/193/3 7/194/3 11/195/3
f 149/196/5 152/197/5 151/198/5 147/199/5
f 86/200/2 87/201/2 89/202/2 88/203/2
f 67/204/4 66/205/4 63/206/4 65/207/4
f 79/208/5 75/209/5 77/210/5 81/211/5
f 97/212/3 93/213/3 131/214/3 135/215/3 133/216/3 92/217/3 96/218/3 138/219/3 137/220/3 140/221/3
f 133/149/6 134/222/6 90/223/6 92/69/6
f 82/224/1 83/225/1 87/226/1 86/227/1
f 87/228/5 83/229/5 85/48/5 89/51/5
f 82/230/6 86/231/6 88/40/6 84/43/6
f 131/54/4 93/53/4 91/232/4 130/233/4
f 100/234/5 104/235/5 102/236/5 98/237/5
f 139/238/6 138/61/6 96/60/6 94/239/6
f 130/174/1 91/240/1 95/241/1 132/242/1
f 90/223/6 94/239/6 96/60/6 92/69/6
f 95/178/5 91/243/5 93/70/5 97/73/5
f 99/161/3 98/160/3 102/244/3 103/245/3
f 108/246/5 112/247/5 110/248/5 106/249/5
f 103/250/4 102/251/4 104/252/4 105/253/4
f 105/254/1 104/255/1 100/256/1 101/257/1
f 107/258/3 106/259/3 110/260/3 111/261/3
f 143/262/5 144/263/5 100/234/5 98/237/5
f 109/264/2 108/265/2 106/266/2 107/267/2
f 111/268/4 110/269/4 112/270/4 113/271/4
f 113/272/1 112/273/1 108/274/1 109/275/1
f 115/276/3 114/277/3 118/278/3 119/279/3
f 116/280/5 120/281/5 118/282/5 114/283/5
f 139/284/2 142/24/2 137/27/2 138/155/2
f 119/285/4 118/286/4 120/287/4 121/288/4
f 121/289/1 120/290/1 116/291/1 117/292/1
f 123/293/3 122/294/3 126/295/3 127/296/3
f 78/297/2 79/298/2 81/299/2 80/300/2
f 117/301/2 116/302/2 114/303/2 115/304/2
f 126/305/5 49/306/5 47/307/5 122/308/5 124/309/5 128/310/5
f 129/311/1 128/312/1 124/313/1 125/314/1
f 90/175/1 130/174/1 132/242/1 94/315/1
f 22/72/5 56/316/5 140/176/5 97/73/5
f 141/317/1 142/318/1 132/242/1 95/241/1
f 88/319/3 89/320/3 85/321/3 84/322/3
f 74/323/6 78/324/6 80/325/6 76/326/6
f 13/327/6 11/328/6 7/329/6 9/330/6
f 8/331/4 10/332/4 9/333/4 7/334/4
f 142/318/1 139/335/1 94/315/1 132/242/1
f 144/336/1 146/337/1 101/257/1 100/256/1
f 89/202/2 18/338/2 17/339/2 88/203/2
f 71/340/5 148/341/5 150/342/5 73/343/5
f 65/344/5 63/345/5 4/346/5 6/347/5
f 70/348/2 71/349/2 73/350/2 72/351/2
f 68/352/6 70/353/6 72/354/6 69/355/6
f 5/356/6 3/357/6 1/358/6 2/359/6
f 14/360/2 12/361/2 11/362/2 13/363/2
f 136/364/5 135/145/5 131/144/5 130/365/5
f 6/366/2 4/367/2 3/368/2 5/369/2
f 146/370/6 145/371/6 99/372/6 101/373/6
f 4/374/3 63/375/3 66/10/3 3/9/3
f 152/376/4 150/377/4 148/378/4 151/379/4
f 151/380/1 148/381/1 71/382/1 70/383/1
f 2/180/1 64/384/1 67/181/1
f 66/385/5 67/386/5 64/387/5 62/388/5
f 72/389/3 73/390/3 150/391/3 152/392/3
f 66/10/3 62/393/3 1/11/3
f 149/394/3 69/395/3 152/392/3
f 69/395/3 72/389/3 152/392/3
f 70/383/1 68/396/1 151/380/1
f 68/396/1 147/397/1 151/380/1
f 52/67/3 57/163/3 56/398/3 22/64/3
f 84/38/4 85/37/4 83/399/4 82/400/4
f 49/401/4 126/402/4 128/403/4 129/404/4 127/405/4 50/406/4
f 119/407/6 121/408/6 117/409/6
f 119/407/6 117/409/6 115/410/6
f 111/411/6 113/412/6 109/413/6
f 111/411/6 109/413/6 107/414/6
f 34/415/6 36/416/6 32/417/6
f 34/415/6 38/418/6 36/416/6
f 42/419/6 44/420/6 40/421/6
f 42/419/6 46/422/6 44/420/6
f 30/423/6 28/424/6 24/425/6
f 30/423/6 24/425/6 26/426/6
f 99/427/6 105/428/6 101/429/6
f 99/427/6 103/430/6 105/428/6
f 127/431/6 129/432/6 125/433/6
f 127/431/6 125/433/6 123/434/6
f 50/435/6 127/431/6 123/434/6
f 50/435/6 123/434/6 48/436/6
