# Blender v2.93.0 OBJ File: ''
# www.blender.org
mtllib circle.mtl
o Circle
v 0.000000 0.000000 0.000000
v -1.000000 0.000000 -0.000000
v -0.992115 -0.125333 -0.000000
v -0.968583 -0.248690 -0.000000
v -0.929776 -0.368124 -0.000000
v -0.876307 -0.481754 -0.000000
v -0.809017 -0.587785 -0.000000
v -0.728969 -0.684547 -0.000000
v -0.637424 -0.770513 -0.000000
v -0.535827 -0.844328 -0.000000
v -0.425779 -0.904827 -0.000000
v -0.309017 -0.951057 -0.000000
v -0.187381 -0.982287 -0.000000
v -0.062791 -0.998027 -0.000000
v 0.062790 -0.998027 0.000000
v 0.187381 -0.982287 0.000000
v 0.309017 -0.951056 0.000000
v 0.425779 -0.904827 0.000000
v 0.535827 -0.844328 0.000000
v 0.637424 -0.770513 0.000000
v 0.728969 -0.684547 0.000000
v 0.809017 -0.587785 0.000000
v 0.876307 -0.481754 0.000000
v 0.929776 -0.368125 0.000000
v 0.968583 -0.248690 0.000000
v 0.992115 -0.125333 0.000000
v 1.000000 0.000000 0.000000
v 0.992115 0.125333 0.000000
v 0.968583 0.248690 0.000000
v 0.929776 0.368124 0.000000
v 0.876307 0.481754 0.000000
v 0.809017 0.587785 0.000000
v 0.728969 0.684547 0.000000
v 0.637424 0.770513 0.000000
v 0.535827 0.844328 0.000000
v 0.425779 0.904827 0.000000
v 0.309017 0.951056 0.000000
v 0.187381 0.982287 0.000000
v 0.062791 0.998027 0.000000
v -0.062790 0.998027 -0.000000
v -0.187381 0.982287 -0.000000
v -0.309017 0.951056 -0.000000
v -0.425779 0.904827 -0.000000
v -0.535827 0.844328 -0.000000
v -0.637424 0.770513 -0.000000
v -0.728969 0.684547 -0.000000
v -0.809017 0.587785 -0.000000
v -0.876307 0.481754 -0.000000
v -0.929776 0.368125 -0.000000
v -0.968583 0.248690 -0.000000
v -0.992115 0.125333 -0.000000
vt 0.500000 0.500000
vt 0.500000 1.000000
vt 0.437333 0.996057
vt 0.375655 0.984292
vt 0.315938 0.964888
vt 0.259123 0.938153
vt 0.206107 0.904508
vt 0.157726 0.864484
vt 0.114743 0.818712
vt 0.077836 0.767913
vt 0.047586 0.712890
vt 0.024472 0.654508
vt 0.008856 0.593691
vt 0.000987 0.531395
vt 0.000987 0.468605
vt 0.008856 0.406309
vt 0.024472 0.345491
vt 0.047587 0.287110
vt 0.077836 0.232087
vt 0.114743 0.181288
vt 0.157726 0.135516
vt 0.206107 0.095491
vt 0.259123 0.061847
vt 0.315938 0.035112
vt 0.375655 0.015708
vt 0.437333 0.003943
vt 0.500000 0.000000
vt 0.562667 0.003943
vt 0.624345 0.015708
vt 0.684062 0.035112
vt 0.740877 0.061847
vt 0.793893 0.095492
vt 0.842274 0.135516
vt 0.885257 0.181288
vt 0.922164 0.232087
vt 0.952413 0.287110
vt 0.975528 0.345491
vt 0.991144 0.406309
vt 0.999013 0.468605
vt 0.999013 0.531395
vt 0.991144 0.593691
vt 0.975528 0.654509
vt 0.952413 0.712890
vt 0.922164 0.767913
vt 0.885257 0.818712
vt 0.842274 0.864484
vt 0.793893 0.904508
vt 0.740877 0.938153
vt 0.684062 0.964888
vt 0.624345 0.984292
vt 0.562667 0.996057
vn -0.0000 0.0000 1.0000
usemtl None
s off
f 1/1/1 2/2/1 3/3/1
f 1/1/1 3/3/1 4/4/1
f 1/1/1 4/4/1 5/5/1
f 1/1/1 5/5/1 6/6/1
f 1/1/1 6/6/1 7/7/1
f 1/1/1 7/7/1 8/8/1
f 1/1/1 8/8/1 9/9/1
f 1/1/1 9/9/1 10/10/1
f 1/1/1 10/10/1 11/11/1
f 1/1/1 11/11/1 12/12/1
f 1/1/1 12/12/1 13/13/1
f 1/1/1 13/13/1 14/14/1
f 1/1/1 14/14/1 15/15/1
f 1/1/1 15/15/1 16/16/1
f 1/1/1 16/16/1 17/17/1
f 1/1/1 17/17/1 18/18/1
f 1/1/1 18/18/1 19/19/1
f 1/1/1 19/19/1 20/20/1
f 1/1/1 20/20/1 21/21/1
f 1/1/1 21/21/1 22/22/1
f 1/1/1 22/22/1 23/23/1
f 1/1/1 23/23/1 24/24/1
f 1/1/1 24/24/1 25/25/1
f 1/1/1 25/25/1 26/26/1
f 1/1/1 26/26/1 27/27/1
f 1/1/1 27/27/1 28/28/1
f 1/1/1 28/28/1 29/29/1
f 1/1/1 29/29/1 30/30/1
f 1/1/1 30/30/1 31/31/1
f 1/1/1 31/31/1 32/32/1
f 1/1/1 32/32/1 33/33/1
f 1/1/1 33/33/1 34/34/1
f 1/1/1 34/34/1 35/35/1
f 1/1/1 35/35/1 36/36/1
f 1/1/1 36/36/1 37/37/1
f 1/1/1 37/37/1 38/38/1
f 1/1/1 38/38/1 39/39/1
f 1/1/1 39/39/1 40/40/1
f 1/1/1 40/40/1 41/41/1
f 1/1/1 41/41/1 42/42/1
f 1/1/1 42/42/1 43/43/1
f 1/1/1 43/43/1 44/44/1
f 1/1/1 44/44/1 45/45/1
f 1/1/1 45/45/1 46/46/1
f 1/1/1 46/46/1 47/47/1
f 1/1/1 47/47/1 48/48/1
f 1/1/1 48/48/1 49/49/1
f 1/1/1 49/49/1 50/50/1
f 1/1/1 50/50/1 51/51/1
f 1/1/1 51/51/1 2/2/1
